<?xml version="1.0" encoding="UTF-8" standalone="no"?>
<!DOCTYPE svg PUBLIC "-//W3C//DTD SVG 1.1//EN" "http://www.w3.org/Graphics/SVG/1.1/DTD/svg11.dtd">
<svg width="100%" height="100%" viewBox="0 0 200 200" version="1.1" xmlns="http://www.w3.org/2000/svg" xmlns:xlink="http://www.w3.org/1999/xlink" xml:space="preserve" xmlns:serif="http://www.serif.com/" style="fill-rule:evenodd;clip-rule:evenodd;stroke-linejoin:round;stroke-miterlimit:1.41421;">
    <g transform="matrix(1,0,0,1,-8330.3,-3520)">
        <g id="Icon-IC" serif:id="Icon IC" transform="matrix(0.894873,0,0,1.1236,1818.75,-435.495)">
            <rect x="7276.51" y="3520.39" width="223.495" height="178" style="fill:none;"/>
            <g transform="matrix(1.11748,0,0,-0.89,7331.11,3673.78)">
                <path d="M98.766,142.719C98.532,143.63 97.862,144.365 96.978,144.682C96.093,144.999 95.108,144.856 94.35,144.301C91.52,142.23 77.286,131.574 74.967,125.207C73.589,121.414 73.902,117.275 75.752,113.768C72.28,108.788 68.684,101.911 65.519,95.192L65.519,142.016C65.519,143.58 64.251,144.848 62.687,144.848L40.031,144.848C38.467,144.848 37.199,143.58 37.199,142.016L37.199,86.508L36.691,86.508L31.854,105.327C31.851,105.336 31.849,105.345 31.846,105.355L27.448,121.766C27.448,121.767 27.448,121.767 27.447,121.768C27.422,121.862 27.391,121.955 27.356,122.047C27.345,122.075 27.332,122.102 27.321,122.129C27.294,122.193 27.266,122.256 27.235,122.318C27.219,122.348 27.203,122.377 27.186,122.406C27.154,122.464 27.121,122.521 27.084,122.577C27.066,122.605 27.047,122.633 27.028,122.66C26.989,122.715 26.948,122.769 26.905,122.822C26.894,122.836 26.884,122.852 26.872,122.866L10.067,142.667C9.363,143.496 8.247,143.849 7.195,143.576C6.143,143.303 5.34,142.451 5.129,141.384L0.051,115.721C0.048,115.702 0.047,115.683 0.044,115.664C0.031,115.59 0.02,115.516 0.013,115.442C0.01,115.41 0.008,115.379 0.006,115.348C0.001,115.277 0,115.207 0,115.136C0.001,115.103 0.001,115.07 0.003,115.037C0.006,114.965 0.013,114.894 0.022,114.822C0.026,114.792 0.028,114.763 0.033,114.734C0.048,114.634 0.068,114.535 0.094,114.438L4.487,98.043L7.434,86.384C5.715,86.091 4.131,85.278 2.872,84.02C1.267,82.414 0.383,80.281 0.383,78.013C0.383,74.321 2.751,71.173 6.047,70.004L6.047,14.009C6.047,6.201 12.399,-0.151 20.207,-0.151L76.847,-0.151C84.655,-0.151 91.007,6.201 91.007,14.009L91.007,69.999C92.187,70.415 93.27,71.094 94.182,72.005C95.787,73.611 96.671,75.744 96.671,78.012C96.671,82.15 93.696,85.605 89.773,86.355C91.621,93.861 92.923,101.321 93.404,107.173C97.184,108.635 100.166,111.637 101.581,115.522C103.904,121.901 99.644,139.297 98.766,142.719ZM67.784,86.508C72.109,96.308 76.103,104.041 79.521,109.234C80.692,108.313 82.007,107.577 83.431,107.058C84.792,106.563 86.207,106.282 87.629,106.217C87.062,100.57 85.761,93.541 83.973,86.508L67.784,86.508ZM42.863,139.184L59.855,139.184L59.855,132.67L54.191,132.67C52.627,132.67 51.359,131.402 51.359,129.838C51.359,128.274 52.627,127.006 54.191,127.006L59.855,127.006L59.855,121.342L54.191,121.342C52.627,121.342 51.359,120.074 51.359,118.51C51.359,116.946 52.627,115.678 54.191,115.678L59.855,115.678L59.855,110.014L54.191,110.014C52.627,110.014 51.359,108.746 51.359,107.182C51.359,105.618 52.627,104.35 54.191,104.35L59.855,104.35L59.855,98.686L54.191,98.686C52.627,98.686 51.359,97.418 51.359,95.854C51.359,94.29 52.627,93.022 54.191,93.022L59.855,93.022L59.855,86.508L42.863,86.508L42.863,139.184ZM13.245,86.508L9.973,99.451C9.97,99.464 9.967,99.477 9.963,99.49L6.991,110.582C8.245,110.319 9.523,110.185 10.808,110.185C12.445,110.185 14.094,110.4 15.718,110.835C18.617,111.612 21.229,113.038 23.402,114.983L26.372,103.902L30.842,86.508L13.245,86.508ZM9.546,134.527L21.165,120.837C19.418,118.63 17.02,117.048 14.252,116.306C11.494,115.567 8.638,115.735 6.031,116.762L9.546,134.527ZM76.847,5.513L20.207,5.513C15.522,5.513 11.711,9.324 11.711,14.009L11.711,69.516L85.343,69.516L85.343,14.009C85.343,9.324 81.532,5.513 76.847,5.513ZM91.007,78.012C91.007,77.257 90.712,76.546 90.177,76.011C89.642,75.475 88.931,75.18 88.175,75.18L8.879,75.18C7.317,75.18 6.047,76.451 6.047,78.012C6.047,78.768 6.342,79.479 6.877,80.014C7.412,80.55 8.123,80.844 8.879,80.844L34.476,80.844C34.482,80.844 34.487,80.844 34.492,80.844C34.496,80.844 34.5,80.844 34.503,80.844L63.453,80.844C63.458,80.844 63.463,80.844 63.467,80.844C63.47,80.844 63.473,80.844 63.477,80.844L86.153,80.844C86.156,80.844 86.16,80.844 86.163,80.844C86.169,80.844 86.174,80.844 86.18,80.844L88.175,80.844C89.736,80.844 91.007,79.574 91.007,78.012ZM96.258,117.46C95.259,114.715 92.957,112.699 90.093,112.067C88.526,111.718 86.892,111.826 85.369,112.38C83.79,112.955 82.431,113.972 81.439,115.32C81.439,115.32 81.438,115.321 81.438,115.322C79.745,117.619 79.316,120.591 80.289,123.27C81.351,126.185 88.259,132.4 94.271,137.127C95.925,129.612 97.318,120.369 96.258,117.46Z" style="fill:rgb(238,117,83);fill-rule:nonzero;"/>
            </g>
        </g>
    </g>
</svg>
