<?xml version="1.0" encoding="UTF-8" standalone="no"?>
<!DOCTYPE svg PUBLIC "-//W3C//DTD SVG 1.1//EN" "http://www.w3.org/Graphics/SVG/1.1/DTD/svg11.dtd">
<svg width="100%" height="100%" viewBox="0 0 200 200" version="1.1" xmlns="http://www.w3.org/2000/svg" xmlns:xlink="http://www.w3.org/1999/xlink" xml:space="preserve" xmlns:serif="http://www.serif.com/" style="fill-rule:evenodd;clip-rule:evenodd;stroke-linejoin:round;stroke-miterlimit:1.41421;">
    <g transform="matrix(1,0,0,1,-7276,-3520)">
        <g id="Icon-Log" serif:id="Icon Log" transform="matrix(0.894873,0,0,1.1236,764.454,-435.495)">
            <rect x="7276.51" y="3520.39" width="223.495" height="178" style="fill:none;"/>
            <g transform="matrix(1.11748,0,0,-0.89,7072.5,3863.25)">
                <path d="M335.633,252.062C332.299,252.062 329.602,249.363 329.602,246.031C329.602,242.699 332.299,240 335.633,240C338.965,240 341.664,242.699 341.664,246.031C341.664,249.363 338.965,252.062 335.633,252.062Z" style="fill:rgb(238,117,83);fill-rule:nonzero;"/>
            </g>
            <g transform="matrix(1.11748,0,0,-0.89,7072.5,3779.45)">
                <path d="M332.618,182.031C330.952,182.031 329.602,180.681 329.602,179.016C329.602,177.352 330.952,176 332.618,176C334.281,176 335.633,177.352 335.633,179.016C335.633,180.681 334.281,182.031 332.618,182.031Z" style="fill:rgb(238,117,83);fill-rule:nonzero;"/>
            </g>
            <g transform="matrix(1.11748,0,0,-0.89,7242.94,3863.25)">
                <path d="M90.832,252.062C87.5,252.062 84.801,249.363 84.801,246.031C84.801,242.699 87.5,240 90.832,240C94.164,240 96.863,242.699 96.863,246.031C96.863,249.363 94.164,252.062 90.832,252.062Z" style="fill:rgb(238,117,83);fill-rule:nonzero;"/>
            </g>
            <g transform="matrix(1.11748,0,0,-0.89,7301.98,3660.38)">
                <path d="M141.723,60.119L136.522,80.917C138.372,82.685 139.32,85.029 139.32,87.452C139.32,92.44 135.262,96.498 130.273,96.498L106.149,96.498L106.149,105.545C106.149,110.534 102.091,114.592 97.102,114.592L9.047,114.592C4.058,114.592 0,110.534 0,105.545L0,27.14C0,22.152 4.058,18.093 9.047,18.093L19.903,18.093C19.903,8.116 28.019,0 37.997,0C47.974,0 56.09,8.116 56.09,18.093L112.18,18.093C112.18,8.116 120.296,0 130.273,0C140.25,0 148.367,8.116 148.367,18.093C148.367,18.266 148.358,18.436 148.353,18.609C151.87,19.848 154.398,23.204 154.398,27.14L154.398,45.234C154.398,52.73 148.898,58.964 141.723,60.119ZM130.933,78.405L135.456,60.311L110.413,60.311L117.328,67.226C118.506,68.404 118.506,70.312 117.328,71.49C116.15,72.668 114.241,72.668 113.063,71.49L106.149,64.577L106.149,78.405L130.933,78.405ZM133.289,87.452C133.289,85.788 131.937,84.436 130.273,84.436L106.149,84.436L106.149,90.467L130.273,90.467C131.936,90.467 133.289,89.115 133.289,87.452ZM37.997,6.031C31.345,6.031 25.934,11.443 25.934,18.093C25.934,24.836 31.443,30.156 37.997,30.156C44.565,30.156 50.059,24.821 50.059,18.093C50.059,11.443 44.647,6.031 37.997,6.031ZM55.055,24.125C52.535,31.241 45.719,36.187 37.997,36.187C30.271,36.187 23.45,31.238 20.937,24.125L9.047,24.125C7.383,24.125 6.031,25.478 6.031,27.14L6.031,105.545C6.031,107.209 7.383,108.561 9.047,108.561L97.102,108.561C98.764,108.561 100.118,107.209 100.118,105.545L100.118,24.125L55.055,24.125ZM130.273,6.031C123.622,6.031 118.211,11.443 118.211,18.093C118.211,24.836 123.719,30.156 130.273,30.156C136.84,30.156 142.336,24.821 142.336,18.093C142.336,11.443 136.923,6.031 130.273,6.031ZM147.117,24.701C144.441,31.507 137.786,36.187 130.273,36.187C122.546,36.187 115.727,31.238 113.214,24.125L106.149,24.125L106.149,54.28L139.32,54.28C143.25,54.28 146.603,51.76 147.849,48.249L139.32,48.249C137.653,48.249 136.305,46.899 136.305,45.234C136.305,43.568 137.653,42.218 139.32,42.218L148.367,42.218L148.367,27.14C148.367,26.137 147.872,25.25 147.117,24.701Z" style="fill:rgb(238,117,83);fill-rule:nonzero;"/>
            </g>
            <g transform="matrix(1.11748,0,0,-0.89,7254.08,3665.53)">
                <path d="M95.941,102.28C80.977,102.28 68.801,90.105 68.801,75.14C68.801,60.176 80.977,48 95.941,48C110.906,48 123.081,60.176 123.081,75.14C123.081,90.105 110.906,102.28 95.941,102.28ZM95.941,54.031C84.301,54.031 74.832,63.5 74.832,75.14C74.832,86.78 84.301,96.249 95.941,96.249C107.581,96.249 117.05,86.78 117.05,75.14C117.05,63.5 107.581,54.031 95.941,54.031Z" style="fill:rgb(238,117,83);fill-rule:nonzero;"/>
            </g>
            <g transform="matrix(1.11748,0,0,-0.89,7209.52,3672.54)">
                <path d="M147.879,86.031L138.832,86.031L138.832,95.078C138.832,96.743 137.482,98.093 135.817,98.093C134.151,98.093 132.801,96.743 132.801,95.078L132.801,83.016C132.801,81.35 134.151,80 135.817,80L147.879,80C149.544,80 150.894,81.35 150.894,83.016C150.894,84.681 149.544,86.031 147.879,86.031Z" style="fill:rgb(238,117,83);fill-rule:nonzero;"/>
            </g>
        </g>
    </g>
</svg>
