<?xml version="1.0" encoding="UTF-8" standalone="no"?>
<!DOCTYPE svg PUBLIC "-//W3C//DTD SVG 1.1//EN" "http://www.w3.org/Graphics/SVG/1.1/DTD/svg11.dtd">
<svg width="100%" height="100%" viewBox="0 0 200 200" version="1.1" xmlns="http://www.w3.org/2000/svg" xmlns:xlink="http://www.w3.org/1999/xlink" xml:space="preserve" xmlns:serif="http://www.serif.com/" style="fill-rule:evenodd;clip-rule:evenodd;stroke-linejoin:round;stroke-miterlimit:1.41421;">
    <g transform="matrix(1,0,0,1,-7624,-3520)">
        <g id="Icon-Mark" serif:id="Icon Mark" transform="matrix(0.894873,0,0,1.1236,1112.45,-435.495)">
            <rect x="7276.51" y="3520.39" width="223.495" height="178" style="fill:none;"/>
            <g transform="matrix(1.11748,0,0,-0.89,7309.81,3674.15)">
                <path d="M130.349,63.26C125.809,63.26 121.965,60.229 120.727,56.086L109.708,56.086C110.195,57.798 110.451,59.58 110.451,61.384C110.451,65.598 109.114,69.612 106.644,72.927C108.983,76.066 110.303,79.831 110.438,83.797L120.727,83.797C121.965,79.654 125.809,76.624 130.349,76.624C135.887,76.624 140.391,81.129 140.391,86.666C140.391,92.204 135.887,96.709 130.349,96.709C125.809,96.709 121.965,93.679 120.727,89.536L109.782,89.536C108.111,95.745 103.429,100.746 97.228,102.778C97.28,103.246 97.307,103.715 97.307,104.187C97.307,105.853 96.978,107.431 96.385,108.869L109.643,115.523C111.172,114.582 112.97,114.037 114.894,114.037C120.432,114.037 124.936,118.543 124.936,124.079C124.936,129.616 120.432,134.122 114.894,134.122C109.357,134.122 104.852,129.616 104.852,124.079C104.852,122.62 105.167,121.233 105.73,119.98L92.925,113.554C90.704,115.398 87.802,116.504 84.579,116.504C78.301,116.504 74.812,115.295 72.661,113.644L72.661,125.889C76.772,127.146 79.772,130.975 79.772,135.493C79.772,141.03 75.267,145.535 69.729,145.535C64.192,145.535 59.686,141.03 59.686,135.493C59.686,130.929 62.748,127.07 66.922,125.852L66.922,111.872C64.694,113.953 61.337,116.504 55.004,116.504C51.331,116.504 48.07,115.044 45.767,112.673L34.111,120.681C34.494,121.743 34.704,122.887 34.704,124.079C34.704,129.616 30.199,134.123 24.661,134.123C19.123,134.123 14.619,129.616 14.619,124.079C14.619,118.543 19.123,114.038 24.661,114.038C26.926,114.038 29.018,114.792 30.7,116.062L42.835,107.726C42.471,106.547 42.278,105.291 42.278,103.982C42.278,103.538 42.301,103.104 42.347,102.674C36.171,100.649 31.505,95.693 29.819,89.536L19.665,89.536C18.427,93.679 14.583,96.709 10.042,96.709C4.505,96.709 0,92.204 0,86.667C0,81.129 4.505,76.624 10.042,76.624C14.582,76.624 18.427,79.654 19.665,83.797L29.146,83.797C29.27,79.847 30.592,76.088 32.937,72.943C30.469,69.633 29.132,65.638 29.132,61.455C29.132,59.596 29.393,57.794 29.883,56.087L19.665,56.087C18.427,60.229 14.583,63.26 10.042,63.26C4.505,63.26 0,58.755 0,53.218C0,47.679 4.505,43.174 10.042,43.174C14.582,43.174 18.427,46.205 19.665,50.348L32.632,50.348C34.969,47.027 38.343,44.468 42.356,43.153C42.303,42.687 42.278,42.217 42.278,41.748C42.278,39.467 42.853,37.298 43.857,35.394L30.9,27.452C29.185,28.816 27.016,29.634 24.661,29.634C19.123,29.634 14.619,25.128 14.619,19.591C14.619,14.054 19.123,9.549 24.661,9.549C30.198,9.549 34.704,14.054 34.704,19.591C34.704,20.692 34.522,21.75 34.194,22.741L47.587,30.951C49.692,29.328 52.262,28.356 55.004,28.356C58.129,28.356 60.665,30.265 62.519,31.66C62.962,31.992 63.545,32.43 63.872,32.622L66.922,32.622L66.922,19.684C62.748,18.467 59.686,14.607 59.686,10.044C59.686,4.506 64.192,0 69.729,0C75.267,0 79.772,4.506 79.772,10.044C79.772,14.562 76.772,18.39 72.661,19.648L72.661,32.621L75.712,32.621C76.039,32.43 76.621,31.992 77.064,31.66C78.917,30.266 81.456,28.357 84.579,28.357C87.893,28.357 90.958,29.74 93.251,31.959L105.366,22.756C105.033,21.761 104.852,20.697 104.852,19.591C104.852,14.053 109.357,9.548 114.894,9.548C120.432,9.548 124.936,14.053 124.936,19.591C124.936,25.128 120.432,29.633 114.894,29.633C112.542,29.633 110.377,28.819 108.664,27.458L96.429,36.751C96.992,38.208 97.307,39.782 97.307,41.418C97.307,41.936 97.275,42.468 97.212,42.998C100.514,44.097 103.493,46.091 105.795,48.785C106.224,49.287 106.623,49.809 106.996,50.348L120.728,50.348C121.965,46.205 125.809,43.174 130.35,43.174C135.887,43.174 140.391,47.679 140.391,53.217C140.391,58.754 135.887,63.26 130.349,63.26ZM20.357,124.079C20.357,126.454 22.288,128.384 24.661,128.384C27.034,128.384 28.964,126.452 28.964,124.079C28.964,121.707 27.034,119.776 24.661,119.776C22.288,119.776 20.357,121.707 20.357,124.079ZM10.042,48.913C7.669,48.913 5.738,50.844 5.738,53.217C5.738,55.591 7.669,57.52 10.042,57.52C12.416,57.52 14.346,55.59 14.346,53.217C14.346,50.844 12.416,48.913 10.042,48.913ZM74.033,10.044C74.033,7.67 72.102,5.738 69.729,5.738C67.356,5.738 65.426,7.67 65.426,10.044C65.426,12.416 67.357,14.347 69.729,14.347C72.102,14.347 74.033,12.416 74.033,10.044ZM130.349,90.97C132.723,90.97 134.653,89.04 134.653,86.666C134.653,84.293 132.723,82.363 130.349,82.363C127.976,82.363 126.046,84.293 126.046,86.666C126.046,89.04 127.976,90.97 130.349,90.97ZM114.895,128.384C117.268,128.384 119.198,126.452 119.198,124.079C119.198,121.707 117.268,119.776 114.895,119.776C112.521,119.776 110.59,121.707 110.59,124.079C110.59,126.452 112.521,128.384 114.895,128.384ZM65.426,135.493C65.426,137.866 67.357,139.797 69.729,139.797C72.102,139.797 74.033,137.866 74.033,135.493C74.033,133.119 72.102,131.188 69.729,131.188C67.357,131.188 65.426,133.119 65.426,135.493ZM10.042,82.363C7.669,82.363 5.738,84.293 5.738,86.666C5.738,89.04 7.669,90.97 10.042,90.97C12.416,90.97 14.346,89.04 14.346,86.666C14.346,84.293 12.416,82.363 10.042,82.363ZM24.661,15.287C22.288,15.287 20.357,17.217 20.357,19.591C20.357,21.964 22.288,23.895 24.661,23.895C27.034,23.895 28.964,21.964 28.964,19.591C28.964,17.217 27.034,15.287 24.661,15.287ZM114.895,23.895C117.268,23.895 119.198,21.964 119.198,19.591C119.198,17.217 117.268,15.287 114.895,15.287C112.521,15.287 110.59,17.217 110.59,19.591C110.59,21.964 112.521,23.895 114.895,23.895ZM94.154,48.098C91.719,49.336 84.694,52.466 80.02,50.129C78.604,49.42 78.028,47.696 78.737,46.279C79.445,44.862 81.17,44.287 82.586,44.995C84.24,45.822 88.535,44.475 91.392,43.062C91.504,42.527 91.569,41.956 91.569,41.418C91.569,40.03 91.176,38.718 90.505,37.597C90.428,37.495 90.362,37.388 90.302,37.279C89.024,35.371 86.914,34.096 84.579,34.096C83.372,34.096 81.786,35.288 80.513,36.247C79.068,37.334 77.701,38.361 76.05,38.361L72.661,38.361L72.661,59.813C72.661,61.397 71.376,62.682 69.791,62.682C68.207,62.682 66.922,61.397 66.922,59.813L66.922,38.361L63.534,38.361C61.883,38.361 60.516,37.333 59.07,36.246C57.796,35.287 56.212,34.094 55.004,34.094C51.347,34.094 48.016,37.743 48.016,41.748C48.016,42.253 48.08,42.756 48.192,43.254C51.029,44.597 55.015,45.791 56.604,44.995C58.021,44.287 59.744,44.861 60.454,46.279C61.161,47.697 60.588,49.42 59.17,50.129C54.697,52.366 48.073,49.595 45.377,48.268C41.7,49.109 38.66,51.385 36.812,54.449C36.743,54.591 36.665,54.728 36.576,54.857C35.487,56.814 34.872,59.066 34.872,61.455C34.872,64.843 36.123,68.056 38.405,70.559C40.164,71.293 46.935,73.694 51.333,69.296C51.893,68.737 52.626,68.457 53.361,68.457C54.096,68.457 54.83,68.737 55.391,69.296C56.511,70.419 56.511,72.234 55.391,73.355C49.388,79.358 41.329,77.653 37.55,76.363C35.813,78.689 34.871,81.489 34.871,84.42C34.871,90.691 39.128,96.026 45.146,97.508C46.636,96.63 49.333,95.619 53.849,95.619C54.311,95.619 54.792,95.629 55.293,95.652C56.876,95.723 58.102,97.065 58.031,98.647C57.96,100.231 56.609,101.462 55.036,101.385C51.03,101.205 49.024,101.943 48.235,102.35C48.085,102.901 48.015,103.426 48.015,103.983C48.015,107.787 51.085,110.766 55.004,110.766C59.837,110.766 61.824,108.836 63.746,106.969C64.67,106.071 65.67,105.103 66.922,104.473L66.922,82.672C66.922,81.088 68.207,79.803 69.791,79.803C71.376,79.803 72.66,81.088 72.66,82.672L72.66,104.618C73.77,105.38 74.363,106.495 74.75,107.228C75.581,108.804 76.617,110.765 84.579,110.765C88.563,110.765 91.568,107.938 91.568,104.187C91.568,103.363 91.414,102.542 91.117,101.746C89.987,101.48 88.346,101.278 86.038,101.384C84.463,101.451 83.115,100.228 83.043,98.646C82.972,97.063 84.198,95.723 85.782,95.65C86.282,95.628 86.762,95.618 87.224,95.618C91.367,95.618 93.981,96.472 95.535,97.288C100.965,95.457 104.712,90.378 104.712,84.47C104.712,81.508 103.773,78.689 102.042,76.359C98.265,77.649 90.198,79.361 84.193,73.355C83.072,72.234 83.072,70.417 84.193,69.296C84.752,68.737 85.488,68.456 86.221,68.456C86.955,68.456 87.691,68.737 88.25,69.296C92.585,73.633 99.352,71.299 101.159,70.561C103.452,68.053 104.712,64.814 104.712,61.383C104.713,55.049 100.23,49.483 94.154,48.098ZM130.349,48.913C127.976,48.913 126.046,50.844 126.046,53.217C126.046,55.591 127.976,57.52 130.349,57.52C132.723,57.52 134.653,55.59 134.653,53.217C134.653,50.844 132.723,48.913 130.349,48.913Z" style="fill:rgb(238,117,83);fill-rule:nonzero;"/>
            </g>
        </g>
    </g>
</svg>
