<?xml version="1.0" encoding="utf-8"?>
<!-- Generator: Adobe Illustrator 24.3.0, SVG Export Plug-In . SVG Version: 6.00 Build 0)  -->
<svg version="1.1" id="Capa_1" xmlns="http://www.w3.org/2000/svg" xmlns:xlink="http://www.w3.org/1999/xlink" x="0px" y="0px"
	 viewBox="0 0 1920 1080" style="enable-background:new 0 0 1920 1080;" xml:space="preserve">
<style type="text/css">
	.st0{clip-path:url(#SVGID_2_);}
	.st1{clip-path:url(#SVGID_4_);fill:#415A80;}
	.st2{clip-path:url(#SVGID_4_);}
	.st3{clip-path:url(#SVGID_4_);fill:#ADE5D0;}
	.st4{clip-path:url(#SVGID_4_);fill:#FFFFFF;}
</style>
<g>
	<g>
		<defs>
			<rect id="SVGID_1_" x="113" width="1693.71" height="1080"/>
		</defs>
		<clipPath id="SVGID_2_">
			<use xlink:href="#SVGID_1_"  style="overflow:visible;"/>
		</clipPath>
		<g class="st0">
			<defs>
				<rect id="SVGID_3_" x="113" width="1693.71" height="1080"/>
			</defs>
			<clipPath id="SVGID_4_">
				<use xlink:href="#SVGID_3_"  style="overflow:visible;"/>
			</clipPath>
			<path class="st1" d="M791.53,824.85l14.92,4.51c-1,4.18-2.58,7.68-4.73,10.48c-2.16,2.81-4.83,4.92-8.02,6.35
				c-3.19,1.43-7.26,2.14-12.19,2.14c-5.99,0-10.88-0.87-14.67-2.61c-3.79-1.74-7.07-4.8-9.83-9.18c-2.76-4.38-4.13-9.99-4.13-16.82
				c0-9.11,2.42-16.11,7.27-21.01c4.85-4.89,11.71-7.34,20.57-7.34c6.94,0,12.39,1.4,16.36,4.21c3.97,2.81,6.92,7.11,8.85,12.93
				l-15.03,3.34c-0.53-1.68-1.08-2.91-1.65-3.68c-0.95-1.3-2.12-2.3-3.49-3c-1.38-0.7-2.92-1.05-4.62-1.05
				c-3.86,0-6.81,1.55-8.87,4.65c-1.55,2.3-2.33,5.92-2.33,10.85c0,6.1,0.93,10.29,2.78,12.55c1.85,2.26,4.46,3.4,7.82,3.4
				c3.26,0,5.72-0.91,7.38-2.74C789.57,830.98,790.78,828.33,791.53,824.85"/>
			<path class="st2" d="M813.66,792.71h15.18v20.14c2.06-2.14,4.11-3.67,6.16-4.59c2.04-0.92,4.45-1.38,7.24-1.38
				c4.13,0,7.38,1.26,9.75,3.77c2.38,2.51,3.56,6.37,3.56,11.56v25.18h-15.26v-21.78c0-2.49-0.46-4.25-1.38-5.28
				c-0.92-1.03-2.21-1.55-3.88-1.55c-1.84,0-3.33,0.7-4.48,2.09c-1.14,1.4-1.72,3.89-1.72,7.5v19.03h-15.18V792.71z"/>
			<path class="st2" d="M878.45,820.61l-14.51-1.53c0.55-2.54,1.34-4.53,2.37-5.99c1.03-1.45,2.52-2.72,4.46-3.78
				c1.39-0.77,3.31-1.37,5.74-1.79c2.44-0.42,5.07-0.63,7.91-0.63c4.55,0,8.21,0.26,10.97,0.77c2.76,0.51,5.06,1.57,6.9,3.19
				c1.29,1.12,2.31,2.7,3.06,4.76c0.75,2.05,1.12,4.01,1.12,5.88v17.49c0,1.86,0.12,3.33,0.35,4.38c0.24,1.06,0.75,2.4,1.55,4.05
				h-14.25c-0.57-1.02-0.95-1.8-1.12-2.33c-0.17-0.53-0.35-1.37-0.52-2.52c-1.99,1.91-3.97,3.28-5.93,4.1
				c-2.68,1.09-5.81,1.64-9.36,1.64c-4.72,0-8.31-1.09-10.76-3.28c-2.45-2.19-3.67-4.89-3.67-8.09c0-3.01,0.88-5.48,2.65-7.42
				c1.77-1.94,5.02-3.38,9.77-4.33c5.69-1.14,9.39-1.94,11.08-2.41c1.69-0.46,3.48-1.06,5.37-1.81c0-1.87-0.39-3.17-1.16-3.92
				c-0.77-0.75-2.13-1.12-4.07-1.12c-2.49,0-4.35,0.4-5.59,1.2C879.83,817.73,879.05,818.89,878.45,820.61 M891.62,828.59
				c-2.09,0.75-4.27,1.4-6.53,1.98c-3.08,0.82-5.04,1.63-5.86,2.42c-0.84,0.82-1.27,1.75-1.27,2.8c0,1.2,0.42,2.17,1.25,2.93
				c0.83,0.76,2.06,1.14,3.67,1.14c1.69,0,3.26-0.41,4.72-1.23c1.45-0.82,2.49-1.82,3.1-3c0.61-1.18,0.91-2.72,0.91-4.61V828.59z"/>
			<path class="st2" d="M932.58,792.71v15.07h8.35v11.12h-8.35v14.03c0,1.69,0.16,2.8,0.48,3.35c0.5,0.84,1.37,1.27,2.61,1.27
				c1.12,0,2.68-0.32,4.7-0.97l1.12,10.48c-3.76,0.82-7.26,1.23-10.52,1.23c-3.78,0-6.56-0.48-8.36-1.45
				c-1.79-0.97-3.11-2.44-3.97-4.41c-0.86-1.98-1.29-5.17-1.29-9.59V818.9h-5.59v-11.12h5.59v-7.27L932.58,792.71z"/>
			<path class="st3" d="M947.05,820.09c0-8.93,2.49-15.88,7.46-20.85c4.97-4.97,11.9-7.46,20.78-7.46c9.1,0,16.11,2.44,21.04,7.33
				c4.92,4.89,7.39,11.73,7.39,20.54c0,6.39-1.08,11.63-3.23,15.72c-2.15,4.09-5.26,7.28-9.33,9.55c-4.07,2.28-9.13,3.41-15.2,3.41
				c-6.17,0-11.27-0.98-15.31-2.95c-4.04-1.97-7.32-5.07-9.83-9.33C948.3,831.8,947.05,826.48,947.05,820.09 M963.95,820.16
				c0,5.52,1.02,9.49,3.08,11.9c2.05,2.41,4.84,3.62,8.37,3.62c3.63,0,6.44-1.18,8.43-3.54c1.99-2.36,2.98-6.6,2.98-12.72
				c0-5.15-1.04-8.91-3.11-11.28c-2.08-2.37-4.89-3.56-8.45-3.56c-3.41,0-6.14,1.21-8.21,3.62
				C964.98,810.6,963.95,814.59,963.95,820.16"/>
			<path class="st2" d="M1028.7,807.78h7.24v11.11h-7.24v28.5h-15.22v-28.5h-5.67v-11.11h5.67v-1.79c0-1.62,0.17-3.4,0.52-5.33
				c0.35-1.94,1-3.52,1.96-4.76c0.96-1.23,2.3-2.22,4.03-2.98c1.73-0.76,4.26-1.14,7.59-1.14c2.66,0,6.53,0.31,11.6,0.93l-1.68,9.17
				c-1.82-0.3-3.28-0.45-4.4-0.45c-1.37,0-2.35,0.23-2.95,0.69c-0.6,0.46-1.02,1.19-1.27,2.18
				C1028.76,804.86,1028.7,806.01,1028.7,807.78"/>
			<path class="st2" d="M1060.33,807.78h7.24v11.11h-7.24v28.5h-15.22v-28.5h-5.67v-11.11h5.67v-1.79c0-1.62,0.17-3.4,0.52-5.33
				c0.35-1.94,1-3.52,1.96-4.76c0.96-1.23,2.3-2.22,4.03-2.98c1.73-0.76,4.26-1.14,7.59-1.14c2.66,0,6.53,0.31,11.6,0.93l-1.68,9.17
				c-1.82-0.3-3.28-0.45-4.4-0.45c-1.37,0-2.35,0.23-2.95,0.69c-0.6,0.46-1.02,1.19-1.27,2.18
				C1060.39,804.86,1060.33,806.01,1060.33,807.78"/>
			<rect x="1073.68" y="792.71" class="st2" width="15.22" height="54.68"/>
			<path class="st2" d="M1099.16,792.71h15.18v10.33h-15.18V792.71z M1099.16,807.78h15.18v39.61h-15.18V807.78z"/>
			<path class="st2" d="M1124.04,807.78h14.14v6.45c2.11-2.64,4.25-4.52,6.42-5.65c2.16-1.13,4.8-1.7,7.91-1.7
				c4.2,0,7.49,1.25,9.86,3.75c2.38,2.5,3.56,6.36,3.56,11.58v25.18h-15.26v-21.78c0-2.48-0.46-4.24-1.38-5.28
				c-0.92-1.03-2.21-1.55-3.88-1.55c-1.84,0-3.33,0.69-4.48,2.09c-1.14,1.39-1.71,3.89-1.71,7.5v19.02h-15.18V807.78z"/>
			<path class="st2" d="M1218.97,831.35h-30.44c0.27,2.44,0.93,4.25,1.98,5.45c1.47,1.72,3.38,2.57,5.75,2.57
				c1.49,0,2.91-0.37,4.25-1.12c0.82-0.47,1.7-1.31,2.65-2.5l14.96,1.38c-2.29,3.98-5.05,6.83-8.28,8.56
				c-3.23,1.73-7.87,2.59-13.91,2.59c-5.25,0-9.38-0.74-12.39-2.22c-3.01-1.48-5.5-3.83-7.48-7.05c-1.98-3.22-2.96-7.01-2.96-11.36
				c0-6.19,1.98-11.2,5.95-15.03c3.97-3.83,9.44-5.74,16.43-5.74c5.67,0,10.15,0.86,13.43,2.57c3.28,1.72,5.78,4.2,7.5,7.46
				c1.72,3.26,2.57,7.5,2.57,12.72V831.35z M1203.53,824.08c-0.3-2.93-1.09-5.03-2.37-6.3c-1.28-1.27-2.97-1.9-5.06-1.9
				c-2.41,0-4.34,0.96-5.78,2.87c-0.92,1.19-1.51,2.97-1.75,5.33H1203.53z"/>
			<path class="st3" d="M992.47,232.85c151.96,0,275.14,119.78,275.14,267.53c0,147.75-123.19,267.53-275.14,267.53
				c-151.96,0-275.15-119.78-275.15-267.53C717.32,352.62,840.51,232.85,992.47,232.85"/>
			<path class="st1" d="M1225.69,469.97v31.44c-0.53,1.25-1.41,2.45-1.55,3.74c-6.2,53.43-31.77,96.39-73.13,129.45
				c-64.57,51.62-138.36,65.82-218.6,49.61c-7.79-1.57-14.43-1.32-21.89,2.1c-34.08,15.65-70.31,24.27-107.04,30.82
				c-13.6,2.42-15.73-1.58-11.77-15.06c7.14-24.31,13.53-48.86,19.28-73.53c1-4.29-1.37-10.88-4.48-14.36
				c-22.71-25.42-39.2-54.05-47.15-87.34c-2.01-8.41-3.43-16.95-5.13-25.44v-33.53c0.57-1.62,1.47-3.2,1.67-4.86
				c6.38-53.37,31.66-96.84,73.57-129.03c82.72-63.54,173.9-72.52,268.73-32.06c62.38,26.62,104.99,73.38,122.26,140.62
				C1222.76,451.54,1223.97,460.82,1225.69,469.97 M830.76,683.68c24.74-8.78,48.3-16.16,71-25.6c11.65-4.85,22.02-5.61,34.23-2.99
				c68.45,14.7,132.53,4.63,189.68-37.47c88.14-64.93,94.6-181.5,14.62-254.38c-76.7-69.9-204.85-75.09-286.98-11.17
				c-43.58,33.92-69.69,77.56-69.62,134.15c0.06,42.94,17.28,79.17,46.36,109.98c8.8,9.32,13.15,19.25,10.62,32.15
				C837.27,645.69,834.41,663.13,830.76,683.68"/>
			<path class="st4" d="M830.76,685.81c3.65-20.55,6.5-37.99,9.9-55.32c2.53-12.91-1.83-22.83-10.62-32.15
				c-29.08-30.81-46.3-67.04-46.36-109.98c-0.07-56.6,26.03-100.23,69.62-134.15c82.13-63.92,210.28-58.73,286.98,11.17
				c79.99,72.88,73.52,189.45-14.62,254.38c-57.15,42.1-121.23,52.17-189.68,37.47c-12.21-2.62-22.58-1.86-34.23,2.99
				C879.06,669.66,855.51,677.03,830.76,685.81"/>
			<path class="st4" d="M1006.98,235.83h-32.86c-29.09,0-52.67,23.58-52.67,52.67l-44.02,60.05l235.68,16.34
				c-3.61-11.71-10.39-28.73-23.49-46.3c-10.5-14.07-21.68-23.96-30.39-30.53C1059.21,284.58,1058.87,266.08,1006.98,235.83"/>
			<path class="st1" d="M968.17,314.3c6.36,13.21,15.45,19.22,26.62,17.59c9.85-1.43,17.92-9.07,19.81-18.73
				c2.2-11.28-3.16-20.42-16.15-27.54c10.51,0.32,20.05,11.75,20.01,23.95c-0.05,13.8-10.59,25.17-23.85,25.71
				C980.3,335.86,969.06,326.94,968.17,314.3"/>
			<path class="st1" d="M992.08,328.08c-10.34-0.04-18.77-8.35-18.95-18.69c-0.18-10.35,8.6-19.14,19.1-19.1
				c10.32,0.04,18.78,8.42,18.93,18.74C1011.31,319.44,1002.62,328.12,992.08,328.08"/>
			<path class="st1" d="M1099.45,526.44c2.47,1.41,4.8,3.08,7.37,4.13c5.21,2.12,6.81,5.98,6.83,11.29
				c0.05,13.54-4.53,25.82-10.94,37.26c-4.52,8.06-10.22,15.64-16.41,22.52c-5.6,6.23-8.71,5.99-16.17,2.16
				c-5.29-2.71-10.59-5.4-15.9-8.07c-0.25-0.13-0.65,0.04-1.76,0.13c-0.38,2.03-1.13,4.25-1.18,6.49
				c-0.31,15.45-8.36,26.11-21.45,32.82c-26.17,13.41-52.68,13.31-78.69-0.45c-12.49-6.61-20.14-17.02-20.41-31.83
				c-0.03-1.86-0.41-3.72-0.68-5.56c-0.1-0.65-0.36-1.27-0.75-2.58c-6.09,3.13-11.93,6.13-17.77,9.14c-7.3,3.76-9.73,3.56-15.9-1.94
				c-9.09-8.09-15.32-18.31-19.67-29.43c-3.37-8.62-5.68-17.74-7.58-26.82c-1.46-6.95,0.19-13.23,8.1-16.01
				c1.85-0.65,3.41-2.12,5.83-3.69c-1.87-1.33-3.21-2.46-4.7-3.33c-30.52-17.72-45.28-44.89-47.79-79.45
				c-0.83-11.44-0.23-22.71,3.03-33.8c4.4-15.01,13.67-26.04,27.46-33.1c5.17-2.65,7.75-6.14,9-11.86
				c5.98-27.46,21.63-49.07,41.97-67.74c1.76-1.61,3.51-3.88,4.01-6.12c8.37-37.05,34.08-58.16,72.08-58.91
				c15.15-0.3,29.88,1.71,43.48,8.85c19.89,10.45,30.79,27.5,35.65,49.01c0.58,2.57,2.21,5.33,4.16,7.11
				c20.54,18.8,35.67,40.91,42.42,68.22c1.31,5.28,4.02,9.3,8.86,11.79c16.87,8.65,25.92,22.96,29.04,41.16
				c3.1,18.08,1.34,35.97-4.28,53.37c-7.27,22.52-21.66,39.36-42.03,51.21c-1.47,0.85-2.91,1.75-4.33,2.67
				C1100.1,525.26,1099.98,525.63,1099.45,526.44 M884.22,530.38c4.95,4.81,9.87,9.65,14.9,14.37c0.55,0.52,1.94,0.76,2.63,0.44
				c5.62-2.58,11.16-5.33,17.83-8.57c-4.44-4.46-7.95-8.31-11.82-11.76c-2.57-2.29-5.74-2.89-8.92-0.8
				c-0.96-0.49-2.2-1.65-2.84-1.38c-5,2.11-9.88,4.49-16.14,7.41C882.37,530.26,883.29,530.32,884.22,530.38 M1041.77,364.21
				c1.35-5.14,2.2-11.13,4.51-16.48c2.32-5.37,6.19-10.05,9.15-15.17c0.65-1.12,0.69-2.89,0.37-4.2
				c-2.55-10.46-1.29-20.54,2.45-30.49c0.63-1.67,1.2-3.68,0.86-5.35c-4.57-22.42-16.26-39.3-38.14-47.98
				c-12.6-5-25.76-5.86-39.09-4.78c-30.69,2.47-52.3,21.1-58.58,50.6c-0.53,2.47-0.31,5.43,0.53,7.82
				c3.49,9.84,4.73,19.72,2.34,30.02c-0.38,1.64,0.35,3.83,1.21,5.42c2.88,5.35,6.56,10.33,8.96,15.87
				c1.97,4.56,2.54,9.72,3.75,14.71H1041.77z M1051.02,517.4c5.43-11.65,8.2-23.48,9.22-35.7c2.33-27.97-11.7-48.74-38.4-55.99
				c-21.07-5.72-42.41-5.72-63.38,0.51c-21.47,6.38-34.16,20.79-36.62,43.42c-1.19,10.95,0.41,21.7,3.48,32.22
				c1.5,5.13,3.36,10.15,5.2,15.62c5.04-7.34,9.09-14.25,14.11-20.37c15.52-18.9,34.95-28.43,59.78-22.44
				c15.82,3.82,27.23,14.13,36.45,27.04C1044.36,506.61,1047.44,511.84,1051.02,517.4 M846.45,467.22
				c7.13,17.5,18.95,30.82,35.47,41.09c-0.86-12.85,0.27-24.87-9.54-34.82c-4.76-4.82-6.63-12.47-9.81-18.84
				c0.24-0.07,0.49-0.14,0.73-0.22c5.28,7.42,10.57,14.85,15.85,22.27c0.5-0.34,1-0.69,1.5-1.04c-0.3-0.52-0.52-1.1-0.9-1.56
				c-9.31-11.12-14.92-23.97-16.42-38.3c-0.68-6.53-3.3-11.57-7.44-16.21c-4.21-4.72-8.4-9.45-12.87-14.48
				c-13.71,27.26-1.65,81.17,21.2,96.87C855.71,491.73,848.97,480.58,846.45,467.22 M928.56,365.21
				c-0.89-5.84-1.67-11.03-2.57-16.94c1.58,2.32,2.75,4.03,3.91,5.74c0.47-0.31,0.95-0.62,1.42-0.93
				c-3.57-5.42-6.79-11.12-10.84-16.16c-2.32-2.88-3.07-5.06-1.83-8.61c3.03-8.64,2.33-17.27-1.24-26.57
				c-21.42,19.23-36.32,41.4-42.31,70.01c3.64-0.57,6.14-0.96,8.63-1.34c2.52-0.38,5.04-0.79,7.56-1.1
				c7.86-0.95,7.77-0.95,8.97-8.92c2.33-15.5,6.48-30.49,12.85-44.88c-3.91,16.86-6.89,33.79-6.42,51.73
				C913.97,366.57,920.68,365.95,928.56,365.21 M1083.05,505.56c0.22,0.03,0.44,0.05,0.66,0.08c0.45-5.12,1.11-10.23,1.3-15.36
				c1.5-39.7-17.81-68.83-53.41-79.61c-26.5-8.02-53.42-8.08-79.95-0.42c-49.96,14.43-59.7,59.97-52.79,95.02
				c0.47-7.93,0.63-15.9,1.46-23.8c3.67-34.98,23.93-57.65,58.22-65.29c19.48-4.34,39.12-4.56,58.72-1.19
				c37.83,6.51,58.08,26.87,63.96,64.43C1082.58,488.03,1082.48,496.84,1083.05,505.56 M850.42,394.11
				c12.13-7.51,25.42-11.85,39.34-13.41c19.73-2.21,39.56-4.17,59.39-4.67c26.8-0.68,53.64,0.03,80.47,0.37
				c6.16,0.08,12.31,1.12,18.47,1.72c0.03-0.23,0.05-0.46,0.08-0.69c-3.16-0.82-6.33-1.64-9.49-2.47
				c25.6,1.12,50.91,3.94,75.71,10.5c-14.62-4.39-29.33-8.55-44.31-11.06c-48.69-8.16-97.7-9.37-146.84-5.1
				c-17.28,1.5-34.49,3.77-50.89,9.9C863.86,382.36,856.04,386.62,850.42,394.11 M993.01,534.39c-15.52-0.23-29.62,1.72-42.42,9.39
				c-1.48,0.89-3.64,2.51-3.62,3.75c0.14,7.82,0.81,15.63,1.35,24.13c13.31-7.96,26.87-11.57,41.41-11.79
				c1.1-0.02,3.1-1.68,3.13-2.64C993.13,549.84,993.01,542.42,993.01,534.39 M887.18,499.11c1.17-11.13,1.85-24.88,4.18-38.34
				c5.93-34.24,24.07-58.37,59.06-67.16c25.81-6.48,51.91-6.54,77.79-0.68c30.7,6.95,52.02,24.73,61.11,55.68
				c0.27,0.9,0.76,1.74,1.15,2.6c0.4-1.18,0.31-2.19,0.06-3.15c-6.98-27.28-23.78-45.96-50.25-55.15
				c-30.04-10.44-60.75-10.6-91.36-2.63c-30.3,7.89-49.11,27.63-57.15,57.82C887.08,465.7,886.19,483.59,887.18,499.11
				 M935.75,522.72c13.95-14.76,18.09-16.2,36.59-9.72c13.02,4.56,25.36,4.18,38.31-0.12c15.49-5.16,23.54-1.82,32.38,11.88
				c1.74,2.7,3.19,5.6,4.72,8.44c1.07,1.99,2.03,4.04,3.31,6.61c0.84-1.3,1.25-1.81,1.53-2.38c7.84-16,13.21-32.78,14.84-50.55
				c1.52-16.47-0.41-32.32-11.23-45.82c-5.47-6.82-12.39-11.68-20.68-14.44c1.15,1.24,2.55,2.11,3.99,2.91
				c12.92,7.19,21.01,17.98,24.1,32.45c2.95,13.78,1.6,27.44-2.04,40.83c-2.63,9.67-6.16,19.09-9.58,29.5
				c-3.99-6-6.78-10.87-10.21-15.23c-6.96-8.85-16.07-12.14-27.15-9.31c-3.12,0.8-6.29,1.47-9.34,2.51c-9.69,3.29-19.27,3.16-29,0
				c-5.14-1.67-10.47-3.03-15.82-3.77C950.09,505.08,940.12,511.55,935.75,522.72 M977.23,635.98c-3.98-1.38-8.1-2.48-11.91-4.24
				c-3.82-1.77-7.62-3.84-10.94-6.41c-14.19-10.94-13.88-26.28,0.55-36.97c18.8-13.93,54.42-14.06,73.28-0.17
				c2.56,1.89,4.81,4.19,7.21,6.3l0.93-1.07c-3.34-3.01-6.35-6.5-10.07-8.93c-15.64-10.24-32.88-12.11-50.89-8.7
				c-10.55,2-20.15,6.12-27.72,14.07c-8.06,8.47-9.66,19.26-3.65,28.43C951.78,630.12,963.81,634.58,977.23,635.98 M1047.85,556.98
				c-2.82-7.52-8.42-12.46-14.53-17.15c-2.49-1.9-4.44-4.78-5.97-7.58c-1.65-3.04-2.53-6.5-3.74-9.78c-0.56,2.32-0.26,4.31,0.06,6.3
				c0.3,1.92,0.63,3.84,1.02,6.26c-23.11-8.81-45.63-8.3-68.68-0.27c0.68-4.74,1.24-8.66,1.8-12.59c-1.61,2.12-2.73,4.4-3.36,6.8
				c-1.42,5.43-4.04,9.64-8.97,12.84c-4.91,3.19-8.54,7.88-10.32,13.78c7.24-10.95,17.64-17.08,30-20.27
				c13.5-3.48,27.18-3.97,40.92-1.84C1022.91,536.09,1037.84,542.17,1047.85,556.98 M1046.71,595.15
				c-1.3-8.23-7.15-16.18-16.82-21.84c-20.8-12.18-42.82-13.32-65.38-5.95c-10.89,3.56-20.27,9.6-26.49,19.63
				c-0.94,1.51-1.49,3.26-2.22,4.9c7.76-12.12,19.18-18.47,32.31-22.1c14.87-4.11,29.96-4.2,44.86-0.22
				C1027.56,573.48,1040.07,580.5,1046.71,595.15 M882.53,533.85c16.71,18.03,26.88,39.21,29.04,63.96
				C919.28,581.46,896.21,535.9,882.53,533.85 M1102.09,536.1c-16.23,3.38-37.37,50.49-29.16,61.58
				C1075.38,573.86,1085.32,553.21,1102.09,536.1 M891.8,552.6c0.26-0.23,0.53-0.45,0.79-0.67c-2.76-3.02-5.22-6.43-8.4-8.92
				c-1.88-1.48-5.59-2.78-7.2-1.88c-1.99,1.11-2.81,4.53-3.83,7.08c-0.4,1.01-0.08,2.36,0.09,3.53
				c2.03,14.75,8.35,27.51,18.03,38.69c0.78,0.9,1.86,1.54,2.8,2.3c-0.65-1.81-1.77-3.09-2.73-4.48
				c-8.27-11.87-14.63-24.53-15.41-39.29c-0.1-1.93,1.26-3.94,1.95-5.91c2,0.7,4.31,0.99,5.93,2.2
				C886.7,547.41,889.16,550.12,891.8,552.6 M991.56,583.73c-0.59-0.01-1.18-0.02-1.77-0.03v46.74c0.55,0,1.11,0,1.67,0
				C993.66,614.89,993.46,599.31,991.56,583.73 M1145.18,430.69c-1.88,10.28-3.73,24.4-7.19,38.11
				c-3.51,13.9-11.98,25.35-21.75,35.69C1139.96,483.8,1146.7,456.85,1145.18,430.69 M982.05,627.13c0.61,0.03,1.23,0.05,1.84,0.08
				v-40.34c-0.61,0-1.23,0-1.84,0V627.13z M997.85,627.25c0.66-0.06,1.32-0.13,1.97-0.19c1.05-13.44,1.32-26.86-0.15-40.27
				c-0.61,0.01-1.21,0.01-1.82,0.02V627.25z M1018.8,485.34c-13.91-12.35-40.24-12.2-55.23,0.53
				C982.55,476.21,1000.67,475.3,1018.8,485.34 M1007.68,589.92h-1.64v34.22h1.64V589.92z M1048.19,353.21
				c0.22,0.08,0.45,0.16,0.67,0.24c4.67-6.66,9.38-13.3,13.97-20.02c0.48-0.71,0.68-2,0.39-2.79c-3.09-8.49-2.88-17.15-1.56-25.91
				c-2.9,6.95-3.48,14.17-1.59,21.32c1.1,4.17,0.48,6.93-2.2,10.44C1054,341.57,1051.36,347.59,1048.19,353.21 M975.92,590.1
				c-0.54,0-1.09,0-1.63,0c-1.41,11.27-1.48,22.53-0.03,33.8c0.55,0,1.1,0,1.66,0V590.1z M944.8,574.65
				c2.2-8.53,0.55-17.21,0.12-26.35C941.33,551.12,941.07,559.65,944.8,574.65 M920.04,460.53c-5.14,15.95-4.21,31.79,2.07,47.39
				C918.42,492.29,917.41,476.57,920.04,460.53 M1105.1,362.31c-3.7-14.62-10.5-27.88-20.51-39.97
				C1091.61,336.03,1098.44,349.34,1105.1,362.31 M1015.83,593.14c-0.51,0-1.03,0-1.54,0v27.99h1.54V593.14z M1080.26,361.48
				c-0.62-14.71-3.38-28.88-9.44-42.29C1073.96,333.29,1077.11,347.38,1080.26,361.48 M967.76,593.12h-1.57v27.77h1.57V593.12z
				 M958.09,617.92c0.48-0.06,0.96-0.12,1.44-0.19v-21.12c-0.48,0-0.96,0-1.44,0.01V617.92z M1023.83,596.39
				c-0.48-0.05-0.96-0.1-1.43-0.14v21.72c0.48,0,0.95,0,1.43,0V596.39z M928.27,548.34c-2.3-8.4-6.52-16.1-14.49-22.27
				C918.9,533.94,923.59,541.14,928.27,548.34 M1054.73,557.32c0.46,0.24,0.92,0.49,1.38,0.73c3.89-7.3,7.79-14.6,11.68-21.9
				c-0.51-0.27-1.01-0.53-1.52-0.8C1062.43,542.68,1058.58,550,1054.73,557.32 M950.01,614.54c0.44,0.04,0.87,0.08,1.31,0.12v-14.99
				c-0.44,0-0.87,0-1.31,0V614.54z M1030.55,614.55h1.06v-14.48h-1.06V614.55z"/>
			<path class="st1" d="M952.58,269.29c0.37,4.27,0.59,6.77,0.81,9.27c-0.21,0.03-0.43,0.06-0.64,0.09
				c-0.55-3.04-1.1-6.07-1.72-9.55c24.63-4.4,48.71-4.47,72.84-1.06l0.02,1.25H952.58z"/>
			<path class="st1" d="M963.57,347.21v5.72c-0.2,0.02-0.4,0.05-0.6,0.07c-0.43-1.91-0.87-3.82-1.43-6.27
				c18.9-3.49,37.33-3.68,55.82,0.47H963.57z"/>
			<path class="st1" d="M995.4,244c2.8,0.61,4.51,3.1,4.14,7.03c-0.35,3.76-2.71,5.95-6.29,6.22c-3.77,0.29-6.48-1.39-6.91-4.83
				c2.93,0,6.41,0.98,8.29-0.33C995.97,251.14,995.19,247.14,995.4,244"/>
			<path class="st1" d="M1036.63,330.84c3.02-0.15,6.5,0.71,8.38-0.65c3.21-2.32,1.3-5.4-1.53-8.07c4.56-0.21,6.09,2.35,6.53,5.71
				c0.47,3.64-2.48,7.01-6.21,7.36C1039.67,335.57,1037.18,333.77,1036.63,330.84"/>
			<path class="st1" d="M939.9,321.92c3.13,0.28,4.96,2.89,4.82,6.58c-0.14,3.73-2.33,6.34-6.3,6.69c-4.17,0.36-6.63-1.62-7.13-4.72
				h8.61V321.92z"/>
			<path class="st1" d="M957.82,431.97c0.89,10.64,1.7,20.25,2.5,29.85c0.11,1.35-0.08,2.78,0.28,4.06
				c3.08,10.67-0.74,18.24-11.04,23.17c-0.99-8.77-2.03-17.74-3.02-26.72c-0.67-6.07-1.04-12.19-2.03-18.21
				c-0.65-4,0.41-6.47,4.17-7.97C951.51,435.03,954.21,433.64,957.82,431.97"/>
			<path class="st1" d="M1051.86,453.05c6.35,12.22,10.54,24.34,4.27,37.6c-2.87,6.07-5.01,12.49-7.67,19.2
				c-3.51-5.32-6.69-10.03-9.71-14.85c-0.54-0.87-0.86-2.31-0.54-3.23C1042.69,478.84,1047.29,465.95,1051.86,453.05"/>
			<path class="st1" d="M1039.05,438.41c1.46,0.99,2.33,1.5,3.11,2.12c8.72,6.87,8.8,7.16,5.29,17.66
				c-3.64,10.9-7.27,21.8-11.12,33.37c-2.97-2.76-5.6-5.02-7.97-7.53c-0.62-0.65-0.8-2.17-0.55-3.13
				C1031.43,466.97,1035.15,453.08,1039.05,438.41"/>
			<path class="st1" d="M964.58,477.24c-0.65-15.54-3.06-31.04-2.6-46.61c0.87-0.02,1.73-0.05,2.6-0.07
				c1.23,15.53,2.29,31.06,2.6,46.61C966.31,477.19,965.44,477.21,964.58,477.24"/>
		</g>
	</g>
</g>
</svg>
