<?xml version="1.0" encoding="UTF-8" standalone="no"?>
<!DOCTYPE svg PUBLIC "-//W3C//DTD SVG 1.1//EN" "http://www.w3.org/Graphics/SVG/1.1/DTD/svg11.dtd">
<svg width="100%" height="100%" viewBox="0 0 200 200" version="1.1" xmlns="http://www.w3.org/2000/svg" xmlns:xlink="http://www.w3.org/1999/xlink" xml:space="preserve" xmlns:serif="http://www.serif.com/" style="fill-rule:evenodd;clip-rule:evenodd;stroke-linejoin:round;stroke-miterlimit:1.41421;">
    <g transform="matrix(1,0,0,1,-7978.2,-3520)">
        <g id="Icon-TI" serif:id="Icon TI" transform="matrix(0.894873,0,0,1.1236,1466.65,-435.495)">
            <rect x="7276.51" y="3520.39" width="223.495" height="178" style="fill:none;"/>
            <g transform="matrix(1.11748,0,0,-0.89,7230.08,3635)">
                <path d="M212.05,30.9L177.788,30.9L177.788,35.741L187.032,35.741C188.207,35.741 189.16,36.694 189.16,37.869C189.16,39.045 188.207,39.997 187.032,39.997L177.788,39.997L177.788,44.839L184.206,44.839C186.596,44.839 188.844,45.77 190.535,47.461L204.53,61.456C205.442,61.002 206.453,60.76 207.502,60.76C209.285,60.76 210.962,61.454 212.223,62.715C213.484,63.977 214.178,65.653 214.178,67.437C214.178,69.22 213.484,70.897 212.223,72.158C210.962,73.419 209.285,74.114 207.502,74.114C205.718,74.114 204.041,73.419 202.78,72.158C201.519,70.897 200.825,69.22 200.825,67.437C200.825,66.388 201.066,65.377 201.521,64.465L187.525,50.47C186.639,49.584 185.46,49.095 184.205,49.095L177.787,49.095L177.787,53.79C177.787,59.98 172.751,65.016 166.562,65.016L161.867,65.016L161.867,83.854C164.508,84.744 166.416,87.243 166.416,90.181C166.416,93.862 163.42,96.857 159.739,96.857C156.058,96.857 153.062,93.862 153.062,90.181C153.062,87.243 154.97,84.744 157.611,83.854L157.611,65.016L152.769,65.016L152.769,74.26C152.769,75.435 151.817,76.388 150.641,76.388C149.466,76.388 148.513,75.435 148.513,74.26L148.513,65.016L143.672,65.016L143.672,99.278C143.672,100.453 142.719,101.406 141.544,101.406C140.369,101.406 139.416,100.453 139.416,99.278L139.416,65.016L134.574,65.016L134.574,74.26C134.574,75.435 133.621,76.388 132.446,76.388C131.271,76.388 130.318,75.435 130.318,74.26L130.318,65.016L125.477,65.016L125.477,71.433C125.477,73.824 124.546,76.072 122.855,77.763L108.855,91.763C110.092,94.26 109.677,97.373 107.601,99.45C104.997,102.054 100.761,102.053 98.158,99.45C95.555,96.847 95.555,92.611 98.158,90.008C99.46,88.706 101.17,88.056 102.879,88.056C103.897,88.056 104.914,88.292 105.846,88.754L119.846,74.753C120.733,73.867 121.221,72.688 121.221,71.433L121.221,65.016L116.526,65.016C115.577,65.016 114.633,64.897 113.72,64.662C112.582,64.369 111.897,63.209 112.19,62.071C112.483,60.932 113.643,60.247 114.781,60.54C115.347,60.686 115.934,60.76 116.526,60.76L166.562,60.76C170.405,60.76 173.531,57.633 173.531,53.79L173.531,3.754C173.531,3.163 173.458,2.576 173.312,2.011C173.02,0.872 173.705,-0.287 174.843,-0.58C175.021,-0.626 175.199,-0.647 175.375,-0.647C176.323,-0.647 177.187,-0.009 177.434,0.951C177.668,1.863 177.787,2.806 177.787,3.754L177.787,8.449L196.625,8.449C197.516,5.808 200.014,3.9 202.952,3.9C206.634,3.9 209.629,6.895 209.629,10.577C209.629,14.259 206.634,17.254 202.952,17.254C200.014,17.254 197.516,15.346 196.625,12.705L177.787,12.705L177.787,17.547L187.031,17.547C188.207,17.547 189.159,18.5 189.159,19.675C189.159,20.85 188.207,21.803 187.031,21.803L177.787,21.803L177.787,26.644L212.05,26.644C213.225,26.644 214.178,27.597 214.178,28.772C214.178,29.947 213.225,30.9 212.05,30.9ZM205.789,69.148C206.247,69.606 206.855,69.857 207.501,69.857C208.148,69.857 208.756,69.606 209.213,69.148C209.67,68.691 209.922,68.083 209.922,67.437C209.922,66.79 209.67,66.182 209.213,65.725C208.756,65.267 208.148,65.016 207.501,65.016C206.855,65.016 206.247,65.267 205.789,65.725C205.332,66.182 205.08,66.79 205.08,67.437C205.08,68.083 205.332,68.691 205.789,69.148ZM159.739,92.601C161.074,92.601 162.16,91.515 162.16,90.181C162.16,88.846 161.074,87.76 159.739,87.76C158.404,87.76 157.318,88.846 157.318,90.181C157.318,91.515 158.404,92.601 159.739,92.601ZM101.167,93.017C100.223,93.961 100.223,95.497 101.167,96.441C101.639,96.913 102.259,97.149 102.879,97.149C103.499,97.149 104.119,96.913 104.591,96.441C105.535,95.497 105.535,93.961 104.591,93.017C103.647,92.074 102.111,92.073 101.167,93.017ZM202.953,12.998C204.287,12.998 205.373,11.911 205.373,10.577C205.373,9.242 204.287,8.156 202.953,8.156C201.618,8.156 200.532,9.242 200.532,10.577C200.531,11.912 201.618,12.998 202.953,12.998Z" style="fill:rgb(238,117,83);fill-rule:nonzero;"/>
            </g>
            <g transform="matrix(1.11748,0,0,-0.89,7307.08,3809.39)">
                <path d="M108.332,164.732L94.332,178.733C93.446,179.619 92.957,180.798 92.957,182.053L92.957,188.47L97.652,188.47C98.601,188.47 99.545,188.589 100.457,188.824C101.595,189.117 102.281,190.277 101.988,191.415C101.695,192.553 100.535,193.238 99.396,192.946C98.831,192.8 98.244,192.726 97.652,192.726L47.616,192.726C43.773,192.726 40.646,195.853 40.646,199.696L40.646,249.732C40.646,250.324 40.72,250.911 40.866,251.476C41.159,252.614 40.474,253.774 39.336,254.067C38.197,254.36 37.037,253.675 36.744,252.537C36.509,251.625 36.391,250.682 36.391,249.732L36.391,245.037L17.552,245.037C16.662,247.678 14.163,249.586 11.225,249.586C7.544,249.586 4.549,246.591 4.549,242.909C4.549,239.228 7.544,236.233 11.225,236.233C14.163,236.233 16.662,238.14 17.552,240.781L36.39,240.781L36.39,235.939L27.146,235.939C25.971,235.939 25.018,234.987 25.018,233.811C25.018,232.636 25.971,231.684 27.146,231.684L36.39,231.684L36.39,226.842L2.128,226.842C0.953,226.842 0,225.889 0,224.714C0,223.539 0.953,222.586 2.128,222.586L36.39,222.586L36.39,217.745L27.146,217.745C25.971,217.745 25.018,216.792 25.018,215.617C25.018,214.441 25.971,213.489 27.146,213.489L36.39,213.489L36.39,208.647L29.972,208.647C27.581,208.647 25.333,207.716 23.643,206.025L9.648,192.03C8.736,192.484 7.725,192.726 6.676,192.726C4.893,192.726 3.216,192.032 1.955,190.771C0.695,189.509 0,187.833 0,186.049C0,184.266 0.695,182.589 1.956,181.328C3.217,180.067 4.893,179.373 6.677,179.373C8.46,179.373 10.137,180.067 11.398,181.328C12.659,182.589 13.354,184.266 13.354,186.049C13.354,187.098 13.112,188.109 12.658,189.021L26.653,203.016C27.54,203.903 28.719,204.391 29.973,204.391L36.391,204.391L36.391,199.696C36.391,193.506 41.427,188.471 47.617,188.471L52.312,188.471L52.312,169.633C49.671,168.742 47.763,166.244 47.763,163.306C47.763,159.624 50.758,156.629 54.44,156.629C58.121,156.629 61.116,159.624 61.116,163.306C61.116,166.244 59.208,168.742 56.568,169.633L56.568,188.471L61.409,188.471L61.409,179.227C61.409,178.051 62.362,177.099 63.537,177.099C64.712,177.099 65.665,178.051 65.665,179.227L65.665,188.471L70.506,188.471L70.506,154.208C70.506,153.033 71.459,152.08 72.634,152.08C73.809,152.08 74.762,153.033 74.762,154.208L74.762,188.47L79.604,188.47L79.604,179.226C79.604,178.051 80.556,177.098 81.732,177.098C82.907,177.098 83.86,178.051 83.86,179.226L83.86,188.47L88.701,188.47L88.701,182.053C88.701,179.662 89.632,177.414 91.323,175.723L105.323,161.723C104.086,159.226 104.501,156.113 106.578,154.036C107.879,152.734 109.589,152.083 111.299,152.083C113.009,152.083 114.719,152.734 116.02,154.036C118.623,156.639 118.623,160.875 116.02,163.478C113.943,165.555 110.83,165.969 108.332,164.732ZM11.225,240.488C9.89,240.488 8.805,241.575 8.805,242.909C8.805,244.244 9.891,245.33 11.225,245.33C12.56,245.33 13.646,244.244 13.646,242.909C13.646,241.574 12.56,240.488 11.225,240.488ZM8.388,184.338C7.931,183.88 7.323,183.629 6.677,183.629C6.03,183.629 5.422,183.88 4.965,184.338C4.508,184.795 4.256,185.403 4.256,186.049C4.256,186.696 4.508,187.304 4.965,187.761C5.422,188.219 6.03,188.47 6.677,188.47C7.323,188.47 7.931,188.219 8.388,187.761C8.846,187.304 9.097,186.696 9.097,186.049C9.097,185.403 8.846,184.795 8.388,184.338ZM54.439,160.885C53.104,160.885 52.018,161.971 52.018,163.305C52.018,164.64 53.104,165.726 54.439,165.726C55.774,165.726 56.86,164.64 56.86,163.305C56.86,161.971 55.774,160.885 54.439,160.885ZM113.011,157.045C112.067,156.101 110.531,156.101 109.587,157.045C108.643,157.989 108.643,159.525 109.587,160.468C110.059,160.94 110.679,161.176 111.299,161.176C111.919,161.176 112.539,160.94 113.011,160.468C113.954,159.525 113.954,157.989 113.011,157.045Z" style="fill:rgb(238,117,83);fill-rule:nonzero;"/>
            </g>
        </g>
    </g>
</svg>
